<mxfile host="app.diagrams.net" agent="Mozilla/5.0 (Windows NT 10.0; Win64; x64) AppleWebKit/537.36 (KHTML, like Gecko) Chrome/129.0.0.0 Safari/537.36" version="24.7.16">
  <diagram name="Page-1" id="13e1069c-82ec-6db2-03f1-153e76fe0fe0">
    <mxGraphModel dx="1290" dy="541" grid="1" gridSize="10" guides="1" tooltips="1" connect="1" arrows="1" fold="1" page="1" pageScale="1" pageWidth="1100" pageHeight="850" background="none" math="0" shadow="0">
      <root>
        <mxCell id="0" />
        <mxCell id="1" parent="0" />
        <mxCell id="EJaVoRYPbrZwSrbZ6Dvy-1" value="WCS" style="shape=umlLifeline;perimeter=lifelinePerimeter;whiteSpace=wrap;html=1;container=1;collapsible=0;recursiveResize=0;outlineConnect=0;rounded=1;shadow=0;comic=0;labelBackgroundColor=none;strokeWidth=1;fontFamily=Verdana;fontSize=12;align=center;" vertex="1" parent="1">
          <mxGeometry x="440" y="80" width="100" height="430" as="geometry" />
        </mxCell>
        <mxCell id="EJaVoRYPbrZwSrbZ6Dvy-2" value="" style="curved=1;endArrow=classic;html=1;rounded=0;" edge="1" parent="EJaVoRYPbrZwSrbZ6Dvy-1">
          <mxGeometry width="50" height="50" relative="1" as="geometry">
            <mxPoint x="50" y="160" as="sourcePoint" />
            <mxPoint x="50" y="120" as="targetPoint" />
            <Array as="points">
              <mxPoint x="10" y="160" />
              <mxPoint y="140" />
              <mxPoint y="120" />
            </Array>
          </mxGeometry>
        </mxCell>
        <mxCell id="EJaVoRYPbrZwSrbZ6Dvy-3" value="&lt;font style=&quot;font-size: 12px;&quot;&gt;状态不符&lt;/font&gt;" style="edgeLabel;html=1;align=center;verticalAlign=middle;resizable=0;points=[];" vertex="1" connectable="0" parent="EJaVoRYPbrZwSrbZ6Dvy-2">
          <mxGeometry x="-0.5918" y="-5" relative="1" as="geometry">
            <mxPoint x="-13" y="-15" as="offset" />
          </mxGeometry>
        </mxCell>
        <mxCell id="EJaVoRYPbrZwSrbZ6Dvy-4" value="状态符合" style="html=1;verticalAlign=bottom;endArrow=block;labelBackgroundColor=none;fontFamily=Verdana;fontSize=12;elbow=vertical;edgeStyle=orthogonalEdgeStyle;curved=1;entryX=1;entryY=0.286;entryPerimeter=0;exitX=1.038;exitY=0.345;exitPerimeter=0;" edge="1" parent="EJaVoRYPbrZwSrbZ6Dvy-1">
          <mxGeometry relative="1" as="geometry">
            <mxPoint x="45" y="160" as="sourcePoint" />
            <mxPoint x="50" y="198" as="targetPoint" />
            <Array as="points">
              <mxPoint x="-10" y="160" />
              <mxPoint x="-10" y="198" />
            </Array>
          </mxGeometry>
        </mxCell>
        <mxCell id="EJaVoRYPbrZwSrbZ6Dvy-5" value="REQ：查询设备状态" style="html=1;verticalAlign=bottom;endArrow=block;entryX=0;entryY=0;labelBackgroundColor=none;fontFamily=Verdana;fontSize=12;edgeStyle=elbowEdgeStyle;elbow=vertical;" edge="1" parent="EJaVoRYPbrZwSrbZ6Dvy-1">
          <mxGeometry relative="1" as="geometry">
            <mxPoint x="50" y="260" as="sourcePoint" />
            <mxPoint x="205" y="260.0000000000002" as="targetPoint" />
          </mxGeometry>
        </mxCell>
        <mxCell id="EJaVoRYPbrZwSrbZ6Dvy-6" value="第三方外设" style="shape=umlLifeline;perimeter=lifelinePerimeter;whiteSpace=wrap;html=1;container=1;collapsible=0;recursiveResize=0;outlineConnect=0;rounded=1;shadow=0;comic=0;labelBackgroundColor=none;strokeWidth=1;fontFamily=Verdana;fontSize=12;align=center;" vertex="1" parent="1">
          <mxGeometry x="600" y="80" width="100" height="430" as="geometry" />
        </mxCell>
        <mxCell id="EJaVoRYPbrZwSrbZ6Dvy-7" value="RCS" style="shape=umlLifeline;perimeter=lifelinePerimeter;whiteSpace=wrap;html=1;container=1;collapsible=0;recursiveResize=0;outlineConnect=0;rounded=1;shadow=0;comic=0;labelBackgroundColor=none;strokeWidth=1;fontFamily=Verdana;fontSize=12;align=center;" vertex="1" parent="1">
          <mxGeometry x="300" y="80" width="100" height="430" as="geometry" />
        </mxCell>
        <mxCell id="EJaVoRYPbrZwSrbZ6Dvy-8" value="" style="endArrow=classic;html=1;rounded=0;" edge="1" parent="EJaVoRYPbrZwSrbZ6Dvy-7" target="EJaVoRYPbrZwSrbZ6Dvy-7">
          <mxGeometry width="50" height="50" relative="1" as="geometry">
            <mxPoint x="189.5" y="200" as="sourcePoint" />
            <mxPoint x="49.5" y="200" as="targetPoint" />
          </mxGeometry>
        </mxCell>
        <mxCell id="EJaVoRYPbrZwSrbZ6Dvy-9" value="&lt;font style=&quot;font-size: 12px;&quot;&gt;REST:任务生成接口&lt;/font&gt;" style="edgeLabel;html=1;align=center;verticalAlign=middle;resizable=0;points=[];" vertex="1" connectable="0" parent="EJaVoRYPbrZwSrbZ6Dvy-8">
          <mxGeometry x="-0.0014" y="1" relative="1" as="geometry">
            <mxPoint as="offset" />
          </mxGeometry>
        </mxCell>
        <mxCell id="EJaVoRYPbrZwSrbZ6Dvy-10" value="RSP：任务生成状态" style="html=1;verticalAlign=bottom;endArrow=open;dashed=1;endSize=8;labelBackgroundColor=none;fontFamily=Verdana;fontSize=12;edgeStyle=elbowEdgeStyle;elbow=horizontal;" edge="1" parent="EJaVoRYPbrZwSrbZ6Dvy-7" source="EJaVoRYPbrZwSrbZ6Dvy-13">
          <mxGeometry relative="1" as="geometry">
            <mxPoint x="189.5" y="230" as="targetPoint" />
            <Array as="points">
              <mxPoint x="-80" y="230" />
              <mxPoint x="215.5" y="285" />
            </Array>
            <mxPoint x="50" y="230" as="sourcePoint" />
          </mxGeometry>
        </mxCell>
        <mxCell id="EJaVoRYPbrZwSrbZ6Dvy-11" value="RSP：回复设备状态" style="html=1;verticalAlign=bottom;endArrow=open;dashed=1;endSize=8;labelBackgroundColor=none;fontFamily=Verdana;fontSize=12;edgeStyle=elbowEdgeStyle;elbow=horizontal;" edge="1" parent="1">
          <mxGeometry relative="1" as="geometry">
            <mxPoint x="490" y="240" as="targetPoint" />
            <Array as="points">
              <mxPoint x="565" y="240" />
              <mxPoint x="595" y="240" />
            </Array>
            <mxPoint x="649.5" y="240" as="sourcePoint" />
          </mxGeometry>
        </mxCell>
        <mxCell id="EJaVoRYPbrZwSrbZ6Dvy-12" value="REQ：查询设备状态" style="html=1;verticalAlign=bottom;endArrow=block;entryX=0;entryY=0;labelBackgroundColor=none;fontFamily=Verdana;fontSize=12;edgeStyle=elbowEdgeStyle;elbow=vertical;" edge="1" parent="1" source="EJaVoRYPbrZwSrbZ6Dvy-1">
          <mxGeometry relative="1" as="geometry">
            <mxPoint x="495" y="200" as="sourcePoint" />
            <mxPoint x="645" y="200.00000000000023" as="targetPoint" />
          </mxGeometry>
        </mxCell>
        <mxCell id="EJaVoRYPbrZwSrbZ6Dvy-13" value="CMS" style="shape=umlLifeline;perimeter=lifelinePerimeter;whiteSpace=wrap;html=1;container=1;collapsible=0;recursiveResize=0;outlineConnect=0;rounded=1;shadow=0;comic=0;labelBackgroundColor=none;strokeWidth=1;fontFamily=Verdana;fontSize=12;align=center;" vertex="1" parent="1">
          <mxGeometry x="150" y="80" width="100" height="430" as="geometry" />
        </mxCell>
      </root>
    </mxGraphModel>
  </diagram>
</mxfile>
